<mxfile host="app.diagrams.net" modified="2024-05-29T15:49:30.619Z" agent="Mozilla/5.0 (Windows NT 10.0; Win64; x64) AppleWebKit/537.36 (KHTML, like Gecko) Chrome/125.0.0.0 Safari/537.36" etag="LThEK8my6MGa-9SMv3mh" version="24.4.8" type="github">
  <diagram name="Page-1" id="8Iod8fkoqyeIapXZaN_Y">
    <mxGraphModel dx="2261" dy="1047" grid="0" gridSize="10" guides="1" tooltips="1" connect="1" arrows="1" fold="1" page="0" pageScale="1" pageWidth="827" pageHeight="1169" math="0" shadow="0">
      <root>
        <mxCell id="0" />
        <mxCell id="1" parent="0" />
        <mxCell id="bfIbjTRq5oWNlbspns5W-99" value="&lt;p style=&quot;margin:0px;margin-top:4px;margin-left:10px;text-align:left;&quot;&gt;&lt;b&gt;ibd&amp;nbsp;&lt;/b&gt;Deployment view&lt;/p&gt;" style="html=1;shape=mxgraph.sysml.package;labelX=135.67;align=left;spacingLeft=10;html=1;overflow=fill;whiteSpace=wrap;recursiveResize=0;" parent="1" vertex="1">
          <mxGeometry x="-432" y="-3" width="1123" height="426" as="geometry" />
        </mxCell>
        <mxCell id="bfIbjTRq5oWNlbspns5W-1" value="&lt;b&gt;&lt;font style=&quot;font-size: 19px;&quot;&gt;Local network&lt;/font&gt;&lt;/b&gt;" style="rounded=0;whiteSpace=wrap;html=1;" parent="1" vertex="1">
          <mxGeometry x="-189" y="181" width="867" height="60" as="geometry" />
        </mxCell>
        <mxCell id="bfIbjTRq5oWNlbspns5W-7" value="" style="endArrow=none;html=1;rounded=0;align=center;verticalAlign=top;endFill=0;labelBackgroundColor=none;endSize=2;" parent="1" source="bfIbjTRq5oWNlbspns5W-10" target="bfIbjTRq5oWNlbspns5W-8" edge="1">
          <mxGeometry relative="1" as="geometry" />
        </mxCell>
        <mxCell id="bfIbjTRq5oWNlbspns5W-8" value="" style="shape=requiredInterface;html=1;fontSize=11;align=center;fillColor=none;points=[];aspect=fixed;resizable=0;verticalAlign=bottom;labelPosition=center;verticalLabelPosition=top;flipH=1;rotation=90;" parent="1" vertex="1">
          <mxGeometry x="-115.5" y="116" width="5" height="10" as="geometry" />
        </mxCell>
        <mxCell id="bfIbjTRq5oWNlbspns5W-11" value="" style="endArrow=none;html=1;rounded=0;align=center;verticalAlign=top;endFill=0;labelBackgroundColor=none;endSize=2;" parent="1" source="bfIbjTRq5oWNlbspns5W-13" target="bfIbjTRq5oWNlbspns5W-12" edge="1">
          <mxGeometry relative="1" as="geometry">
            <mxPoint x="-123.5" y="142" as="sourcePoint" />
          </mxGeometry>
        </mxCell>
        <mxCell id="bfIbjTRq5oWNlbspns5W-12" value="" style="ellipse;html=1;fontSize=11;align=center;fillColor=none;points=[];aspect=fixed;resizable=0;verticalAlign=bottom;labelPosition=center;verticalLabelPosition=top;flipH=1;" parent="1" vertex="1">
          <mxGeometry x="-117" y="126" width="8" height="8" as="geometry" />
        </mxCell>
        <mxCell id="bfIbjTRq5oWNlbspns5W-13" value="" style="html=1;rounded=0;fillColor=default;" parent="1" vertex="1">
          <mxGeometry x="-124" y="169" width="22" height="20" as="geometry" />
        </mxCell>
        <mxCell id="bfIbjTRq5oWNlbspns5W-14" value="" style="group" parent="1" vertex="1" connectable="0">
          <mxGeometry x="-170" y="12" width="120" height="69" as="geometry" />
        </mxCell>
        <mxCell id="bfIbjTRq5oWNlbspns5W-3" value="&lt;b&gt;Patients service server&lt;/b&gt;" style="rounded=0;whiteSpace=wrap;html=1;" parent="bfIbjTRq5oWNlbspns5W-14" vertex="1">
          <mxGeometry width="120" height="60" as="geometry" />
        </mxCell>
        <mxCell id="bfIbjTRq5oWNlbspns5W-10" value="" style="html=1;rounded=0;container=0;" parent="bfIbjTRq5oWNlbspns5W-14" vertex="1">
          <mxGeometry x="45.001235955056174" y="49" width="24.719101123595507" height="20" as="geometry" />
        </mxCell>
        <mxCell id="bfIbjTRq5oWNlbspns5W-31" value="" style="endArrow=none;html=1;rounded=0;align=center;verticalAlign=top;endFill=0;labelBackgroundColor=none;endSize=2;" parent="1" source="bfIbjTRq5oWNlbspns5W-38" target="bfIbjTRq5oWNlbspns5W-32" edge="1">
          <mxGeometry relative="1" as="geometry" />
        </mxCell>
        <mxCell id="bfIbjTRq5oWNlbspns5W-32" value="" style="shape=requiredInterface;html=1;fontSize=11;align=center;fillColor=none;points=[];aspect=fixed;resizable=0;verticalAlign=bottom;labelPosition=center;verticalLabelPosition=top;flipH=1;rotation=90;" parent="1" vertex="1">
          <mxGeometry x="323.5" y="116" width="5" height="10" as="geometry" />
        </mxCell>
        <mxCell id="bfIbjTRq5oWNlbspns5W-33" value="" style="endArrow=none;html=1;rounded=0;align=center;verticalAlign=top;endFill=0;labelBackgroundColor=none;endSize=2;" parent="1" source="bfIbjTRq5oWNlbspns5W-35" target="bfIbjTRq5oWNlbspns5W-34" edge="1">
          <mxGeometry relative="1" as="geometry">
            <mxPoint x="315.5" y="142" as="sourcePoint" />
          </mxGeometry>
        </mxCell>
        <mxCell id="bfIbjTRq5oWNlbspns5W-34" value="" style="ellipse;html=1;fontSize=11;align=center;fillColor=none;points=[];aspect=fixed;resizable=0;verticalAlign=bottom;labelPosition=center;verticalLabelPosition=top;flipH=1;" parent="1" vertex="1">
          <mxGeometry x="322" y="126" width="8" height="8" as="geometry" />
        </mxCell>
        <mxCell id="bfIbjTRq5oWNlbspns5W-35" value="" style="html=1;rounded=0;fillColor=default;" parent="1" vertex="1">
          <mxGeometry x="315" y="169" width="22" height="20" as="geometry" />
        </mxCell>
        <mxCell id="bfIbjTRq5oWNlbspns5W-36" value="" style="group" parent="1" vertex="1" connectable="0">
          <mxGeometry x="269" y="12" width="120" height="69" as="geometry" />
        </mxCell>
        <mxCell id="bfIbjTRq5oWNlbspns5W-37" value="&lt;b&gt;Doctors service server&lt;/b&gt;" style="rounded=0;whiteSpace=wrap;html=1;" parent="bfIbjTRq5oWNlbspns5W-36" vertex="1">
          <mxGeometry width="120" height="60" as="geometry" />
        </mxCell>
        <mxCell id="bfIbjTRq5oWNlbspns5W-38" value="" style="html=1;rounded=0;container=0;" parent="bfIbjTRq5oWNlbspns5W-36" vertex="1">
          <mxGeometry x="45.001235955056174" y="49" width="24.719101123595507" height="20" as="geometry" />
        </mxCell>
        <mxCell id="bfIbjTRq5oWNlbspns5W-39" value="" style="endArrow=none;html=1;rounded=0;align=center;verticalAlign=top;endFill=0;labelBackgroundColor=none;endSize=2;" parent="1" source="bfIbjTRq5oWNlbspns5W-46" target="bfIbjTRq5oWNlbspns5W-40" edge="1">
          <mxGeometry relative="1" as="geometry" />
        </mxCell>
        <mxCell id="bfIbjTRq5oWNlbspns5W-40" value="" style="shape=requiredInterface;html=1;fontSize=11;align=center;fillColor=none;points=[];aspect=fixed;resizable=0;verticalAlign=bottom;labelPosition=center;verticalLabelPosition=top;flipH=1;rotation=90;" parent="1" vertex="1">
          <mxGeometry x="-40.22" y="285" width="5" height="10" as="geometry" />
        </mxCell>
        <mxCell id="bfIbjTRq5oWNlbspns5W-41" value="" style="endArrow=none;html=1;rounded=0;align=center;verticalAlign=top;endFill=0;labelBackgroundColor=none;endSize=2;" parent="1" source="bfIbjTRq5oWNlbspns5W-43" target="bfIbjTRq5oWNlbspns5W-42" edge="1">
          <mxGeometry relative="1" as="geometry">
            <mxPoint x="-48.22" y="311" as="sourcePoint" />
          </mxGeometry>
        </mxCell>
        <mxCell id="bfIbjTRq5oWNlbspns5W-42" value="" style="ellipse;html=1;fontSize=11;align=center;fillColor=none;points=[];aspect=fixed;resizable=0;verticalAlign=bottom;labelPosition=center;verticalLabelPosition=top;flipH=1;" parent="1" vertex="1">
          <mxGeometry x="-41.72" y="295" width="8" height="8" as="geometry" />
        </mxCell>
        <mxCell id="bfIbjTRq5oWNlbspns5W-46" value="" style="html=1;rounded=0;container=0;" parent="1" vertex="1">
          <mxGeometry x="-49.72" y="230" width="24.72" height="21" as="geometry" />
        </mxCell>
        <mxCell id="bfIbjTRq5oWNlbspns5W-47" value="" style="group" parent="1" vertex="1" connectable="0">
          <mxGeometry x="-100" y="338" width="120" height="70" as="geometry" />
        </mxCell>
        <mxCell id="bfIbjTRq5oWNlbspns5W-45" value="&lt;b&gt;Database server 1&lt;/b&gt;" style="rounded=0;whiteSpace=wrap;html=1;" parent="bfIbjTRq5oWNlbspns5W-47" vertex="1">
          <mxGeometry y="10" width="120" height="60" as="geometry" />
        </mxCell>
        <mxCell id="bfIbjTRq5oWNlbspns5W-43" value="" style="html=1;rounded=0;fillColor=default;" parent="bfIbjTRq5oWNlbspns5W-47" vertex="1">
          <mxGeometry x="51.28" width="22" height="20" as="geometry" />
        </mxCell>
        <mxCell id="bfIbjTRq5oWNlbspns5W-48" value="" style="endArrow=none;html=1;rounded=0;align=center;verticalAlign=top;endFill=0;labelBackgroundColor=none;endSize=2;" parent="1" source="bfIbjTRq5oWNlbspns5W-52" target="bfIbjTRq5oWNlbspns5W-49" edge="1">
          <mxGeometry relative="1" as="geometry" />
        </mxCell>
        <mxCell id="bfIbjTRq5oWNlbspns5W-49" value="" style="shape=requiredInterface;html=1;fontSize=11;align=center;fillColor=none;points=[];aspect=fixed;resizable=0;verticalAlign=bottom;labelPosition=center;verticalLabelPosition=top;flipH=1;rotation=90;" parent="1" vertex="1">
          <mxGeometry x="104.78" y="284" width="5" height="10" as="geometry" />
        </mxCell>
        <mxCell id="bfIbjTRq5oWNlbspns5W-50" value="" style="endArrow=none;html=1;rounded=0;align=center;verticalAlign=top;endFill=0;labelBackgroundColor=none;endSize=2;" parent="1" source="bfIbjTRq5oWNlbspns5W-55" target="bfIbjTRq5oWNlbspns5W-51" edge="1">
          <mxGeometry relative="1" as="geometry">
            <mxPoint x="96.78" y="310" as="sourcePoint" />
          </mxGeometry>
        </mxCell>
        <mxCell id="bfIbjTRq5oWNlbspns5W-51" value="" style="ellipse;html=1;fontSize=11;align=center;fillColor=none;points=[];aspect=fixed;resizable=0;verticalAlign=bottom;labelPosition=center;verticalLabelPosition=top;flipH=1;" parent="1" vertex="1">
          <mxGeometry x="103.28" y="294" width="8" height="8" as="geometry" />
        </mxCell>
        <mxCell id="bfIbjTRq5oWNlbspns5W-52" value="" style="html=1;rounded=0;container=0;" parent="1" vertex="1">
          <mxGeometry x="95.28" y="229" width="24.72" height="21" as="geometry" />
        </mxCell>
        <mxCell id="bfIbjTRq5oWNlbspns5W-53" value="" style="group" parent="1" vertex="1" connectable="0">
          <mxGeometry x="45" y="337" width="120" height="70" as="geometry" />
        </mxCell>
        <mxCell id="bfIbjTRq5oWNlbspns5W-54" value="&lt;b&gt;Database server 2&lt;/b&gt;" style="rounded=0;whiteSpace=wrap;html=1;" parent="bfIbjTRq5oWNlbspns5W-53" vertex="1">
          <mxGeometry y="10" width="120" height="60" as="geometry" />
        </mxCell>
        <mxCell id="bfIbjTRq5oWNlbspns5W-55" value="" style="html=1;rounded=0;fillColor=default;" parent="bfIbjTRq5oWNlbspns5W-53" vertex="1">
          <mxGeometry x="51.28" width="22" height="20" as="geometry" />
        </mxCell>
        <mxCell id="bfIbjTRq5oWNlbspns5W-56" value="" style="endArrow=none;html=1;rounded=0;align=center;verticalAlign=top;endFill=0;labelBackgroundColor=none;endSize=2;" parent="1" source="bfIbjTRq5oWNlbspns5W-60" target="bfIbjTRq5oWNlbspns5W-57" edge="1">
          <mxGeometry relative="1" as="geometry" />
        </mxCell>
        <mxCell id="bfIbjTRq5oWNlbspns5W-57" value="" style="shape=requiredInterface;html=1;fontSize=11;align=center;fillColor=none;points=[];aspect=fixed;resizable=0;verticalAlign=bottom;labelPosition=center;verticalLabelPosition=top;flipH=1;rotation=90;" parent="1" vertex="1">
          <mxGeometry x="250.78" y="284" width="5" height="10" as="geometry" />
        </mxCell>
        <mxCell id="bfIbjTRq5oWNlbspns5W-58" value="" style="endArrow=none;html=1;rounded=0;align=center;verticalAlign=top;endFill=0;labelBackgroundColor=none;endSize=2;" parent="1" source="bfIbjTRq5oWNlbspns5W-63" target="bfIbjTRq5oWNlbspns5W-59" edge="1">
          <mxGeometry relative="1" as="geometry">
            <mxPoint x="242.78" y="310" as="sourcePoint" />
          </mxGeometry>
        </mxCell>
        <mxCell id="bfIbjTRq5oWNlbspns5W-59" value="" style="ellipse;html=1;fontSize=11;align=center;fillColor=none;points=[];aspect=fixed;resizable=0;verticalAlign=bottom;labelPosition=center;verticalLabelPosition=top;flipH=1;" parent="1" vertex="1">
          <mxGeometry x="249.28" y="294" width="8" height="8" as="geometry" />
        </mxCell>
        <mxCell id="bfIbjTRq5oWNlbspns5W-60" value="" style="html=1;rounded=0;container=0;" parent="1" vertex="1">
          <mxGeometry x="241.28" y="229" width="24.72" height="21" as="geometry" />
        </mxCell>
        <mxCell id="bfIbjTRq5oWNlbspns5W-61" value="" style="group" parent="1" vertex="1" connectable="0">
          <mxGeometry x="191" y="337" width="120" height="70" as="geometry" />
        </mxCell>
        <mxCell id="bfIbjTRq5oWNlbspns5W-62" value="&lt;b&gt;Database server 3&lt;/b&gt;" style="rounded=0;whiteSpace=wrap;html=1;" parent="bfIbjTRq5oWNlbspns5W-61" vertex="1">
          <mxGeometry y="10" width="120" height="60" as="geometry" />
        </mxCell>
        <mxCell id="bfIbjTRq5oWNlbspns5W-63" value="" style="html=1;rounded=0;fillColor=default;" parent="bfIbjTRq5oWNlbspns5W-61" vertex="1">
          <mxGeometry x="51.28" width="22" height="20" as="geometry" />
        </mxCell>
        <mxCell id="bfIbjTRq5oWNlbspns5W-73" value="" style="endArrow=none;html=1;rounded=0;align=center;verticalAlign=top;endFill=0;labelBackgroundColor=none;endSize=2;" parent="1" source="bfIbjTRq5oWNlbspns5W-75" target="bfIbjTRq5oWNlbspns5W-74" edge="1">
          <mxGeometry relative="1" as="geometry">
            <mxPoint x="-269.5" y="160" as="sourcePoint" />
          </mxGeometry>
        </mxCell>
        <mxCell id="bfIbjTRq5oWNlbspns5W-74" value="" style="ellipse;html=1;fontSize=11;align=center;fillColor=none;points=[];aspect=fixed;resizable=0;verticalAlign=bottom;labelPosition=center;verticalLabelPosition=top;flipH=1;" parent="1" vertex="1">
          <mxGeometry x="-258" y="207" width="8" height="8" as="geometry" />
        </mxCell>
        <mxCell id="bfIbjTRq5oWNlbspns5W-75" value="" style="html=1;rounded=0;fillColor=default;" parent="1" vertex="1">
          <mxGeometry x="-200" y="201" width="22" height="20" as="geometry" />
        </mxCell>
        <mxCell id="bfIbjTRq5oWNlbspns5W-76" value="" style="endArrow=none;html=1;rounded=0;align=center;verticalAlign=top;endFill=0;labelBackgroundColor=none;endSize=2;" parent="1" source="bfIbjTRq5oWNlbspns5W-78" target="bfIbjTRq5oWNlbspns5W-77" edge="1">
          <mxGeometry relative="1" as="geometry" />
        </mxCell>
        <mxCell id="bfIbjTRq5oWNlbspns5W-77" value="" style="shape=requiredInterface;html=1;fontSize=11;align=center;fillColor=none;points=[];aspect=fixed;resizable=0;verticalAlign=bottom;labelPosition=center;verticalLabelPosition=top;flipH=1;rotation=0;" parent="1" vertex="1">
          <mxGeometry x="-266" y="206" width="5" height="10" as="geometry" />
        </mxCell>
        <mxCell id="bfIbjTRq5oWNlbspns5W-81" value="" style="group" parent="1" vertex="1" connectable="0">
          <mxGeometry x="-421" y="181" width="106.72033707865171" height="60" as="geometry" />
        </mxCell>
        <mxCell id="bfIbjTRq5oWNlbspns5W-70" value="&lt;b&gt;Client PC&lt;/b&gt;" style="rounded=0;whiteSpace=wrap;html=1;" parent="bfIbjTRq5oWNlbspns5W-81" vertex="1">
          <mxGeometry width="94" height="60" as="geometry" />
        </mxCell>
        <mxCell id="bfIbjTRq5oWNlbspns5W-78" value="" style="html=1;rounded=0;container=0;" parent="bfIbjTRq5oWNlbspns5W-81" vertex="1">
          <mxGeometry x="82.00123595505619" y="21" width="24.719101123595507" height="20" as="geometry" />
        </mxCell>
        <mxCell id="bfIbjTRq5oWNlbspns5W-90" value="" style="endArrow=none;html=1;rounded=0;align=center;verticalAlign=top;endFill=0;labelBackgroundColor=none;endSize=2;" parent="1" source="bfIbjTRq5oWNlbspns5W-97" target="bfIbjTRq5oWNlbspns5W-91" edge="1">
          <mxGeometry relative="1" as="geometry" />
        </mxCell>
        <mxCell id="bfIbjTRq5oWNlbspns5W-91" value="" style="shape=requiredInterface;html=1;fontSize=11;align=center;fillColor=none;points=[];aspect=fixed;resizable=0;verticalAlign=bottom;labelPosition=center;verticalLabelPosition=top;flipH=1;rotation=-90;" parent="1" vertex="1">
          <mxGeometry x="535.5" y="295" width="5" height="10" as="geometry" />
        </mxCell>
        <mxCell id="bfIbjTRq5oWNlbspns5W-92" value="" style="endArrow=none;html=1;rounded=0;align=center;verticalAlign=top;endFill=0;labelBackgroundColor=none;endSize=2;" parent="1" source="bfIbjTRq5oWNlbspns5W-94" target="bfIbjTRq5oWNlbspns5W-93" edge="1">
          <mxGeometry relative="1" as="geometry">
            <mxPoint x="408.5" y="325" as="sourcePoint" />
          </mxGeometry>
        </mxCell>
        <mxCell id="bfIbjTRq5oWNlbspns5W-93" value="" style="ellipse;html=1;fontSize=11;align=center;fillColor=none;points=[];aspect=fixed;resizable=0;verticalAlign=bottom;labelPosition=center;verticalLabelPosition=top;flipH=1;" parent="1" vertex="1">
          <mxGeometry x="534" y="288" width="8" height="8" as="geometry" />
        </mxCell>
        <mxCell id="bfIbjTRq5oWNlbspns5W-94" value="" style="html=1;rounded=0;fillColor=default;" parent="1" vertex="1">
          <mxGeometry x="527" y="230" width="22" height="20" as="geometry" />
        </mxCell>
        <mxCell id="bfIbjTRq5oWNlbspns5W-98" value="" style="group" parent="1" vertex="1" connectable="0">
          <mxGeometry x="478" y="336" width="120" height="71" as="geometry" />
        </mxCell>
        <mxCell id="bfIbjTRq5oWNlbspns5W-96" value="&lt;b&gt;Check-in machine&lt;/b&gt;" style="rounded=0;whiteSpace=wrap;html=1;container=0;" parent="bfIbjTRq5oWNlbspns5W-98" vertex="1">
          <mxGeometry y="11" width="120" height="60" as="geometry" />
        </mxCell>
        <mxCell id="bfIbjTRq5oWNlbspns5W-97" value="" style="html=1;rounded=0;container=0;" parent="bfIbjTRq5oWNlbspns5W-98" vertex="1">
          <mxGeometry x="47.64123595505612" width="24.719101123595507" height="20" as="geometry" />
        </mxCell>
      </root>
    </mxGraphModel>
  </diagram>
</mxfile>
